Blocked_.sfdir
StartChar: A
Encoding: 65 65 0
Width: 480
VWidth: 0
Flags: W
HStem: 0 21G<43.0332 108.396 368.748 434.109> 244.285 81.4297<116.43 360.715> 488.572 81.4277<116.43 360.715>
VStem: 35 81.4297<0 244.285 325.715 488.572> 360.84 81.1777<0 244.285 325.715 488.572>
LayerCount: 2
Fore
SplineSet
127.541015625 488.572265625 m 0
 121.15234375 488.572265625 116.4296875 493.653320312 116.4296875 499.68359375 c 2
 116.4296875 558.888671875 l 2
 116.4296875 565.044921875 121.384765625 570 127.541015625 570 c 0
 228.704101562 570 329.868164062 570 431.03125 570 c 0
 437.1875 570 442.142578125 565.044921875 442.142578125 558.888671875 c 2
 442.142578125 499.68359375 l 2
 442.142578125 499.139648438 442.091796875 498.610351562 442.017578125 498.087890625 c 0
 442.092773438 496.1484375 442.142578125 494.196289062 442.142578125 492.21875 c 2
 442.142578125 77.78125 l 2
 442.142578125 75.8037109375 442.092773438 73.8515625 442.017578125 71.912109375 c 0
 442.091796875 71.390625 442.142578125 70.859375 442.142578125 70.31640625 c 2
 442.142578125 11.111328125 l 2
 442.142578125 4.955078125 437.1875 0 431.03125 0 c 2
 371.826171875 0 l 2
 365.669921875 0 360.71484375 4.955078125 360.71484375 11.111328125 c 2
 360.71484375 70.31640625 l 2
 360.71484375 70.859375 360.765625 71.390625 360.83984375 71.912109375 c 0
 360.764648438 73.8515625 360.71484375 75.8037109375 360.71484375 77.78125 c 2
 360.71484375 244.28515625 l 1
 116.4296875 244.28515625 l 1
 116.4296875 11.111328125 l 2
 116.4296875 4.955078125 111.474609375 0 105.318359375 0 c 0
 85.5830078125 0 65.8466796875 0 46.111328125 0 c 0
 39.955078125 0 35 4.955078125 35 11.111328125 c 2
 35 477.458984375 l 2
 35 483.615234375 39.955078125 488.572265625 46.111328125 488.572265625 c 0
 65.8466796875 488.572265625 85.5830078125 488.572265625 105.318359375 488.572265625 c 0
 111.474609375 488.572265625 116.4296875 483.615234375 116.4296875 477.458984375 c 2
 116.4296875 325.71484375 l 1
 360.71484375 325.71484375 l 1
 360.71484375 488.572265625 l 1
 282.990234375 488.572265625 205.265625 488.572265625 127.541015625 488.572265625 c 0
EndSplineSet
Validated: 524289
EndChar
StartChar: D
Encoding: 68 68 5
Width: 481
VWidth: 0
Flags: W
HStem: 0 81.4277<118.43 362.715> 407.143 81.4297<281.287 362.715> 488.572 81.4277<118.43 281.287>
VStem: 37 81.4297<81.4277 488.572> 281.287 81.4277<407.143 488.572> 362.715 81.4277<81.4277 407.143>
LayerCount: 2
Fore
SplineSet
48.111328125 570 m 2xb4
 270.173828125 570 l 2
 276.330078125 570 281.287109375 565.044921875 281.287109375 558.888671875 c 2
 281.287109375 499.68359375 l 2xb8
 281.287109375 493.52734375 276.330078125 488.572265625 270.173828125 488.572265625 c 2
 118.4296875 488.572265625 l 1
 118.4296875 81.427734375 l 1
 196.154296875 81.427734375 273.87890625 81.427734375 351.603515625 81.427734375 c 0
 357.759765625 81.427734375 362.71484375 76.47265625 362.71484375 70.31640625 c 2
 362.71484375 11.111328125 l 2
 362.71484375 4.955078125 357.759765625 0 351.603515625 0 c 2
 48.111328125 0 l 2
 41.955078125 0 37 4.955078125 37 11.111328125 c 2
 37 70.31640625 l 2
 37 70.859375 37.052734375 71.390625 37.126953125 71.912109375 c 0
 37.0517578125 73.8515625 37 75.8037109375 37 77.78125 c 2
 37 492.21875 l 2
 37 494.197265625 37.0517578125 496.149414062 37.126953125 498.08984375 c 0
 37.052734375 498.611328125 37 499.140625 37 499.68359375 c 2
 37 558.888671875 l 2
 37 565.044921875 41.955078125 570 48.111328125 570 c 2xb4
292.3984375 488.572265625 m 2xd8
 351.603515625 488.572265625 l 2
 357.759765625 488.572265625 362.71484375 483.615234375 362.71484375 477.458984375 c 2
 362.71484375 418.25390625 l 2
 362.71484375 412.09765625 357.759765625 407.142578125 351.603515625 407.142578125 c 2
 292.3984375 407.142578125 l 2
 286.2421875 407.142578125 281.287109375 412.09765625 281.287109375 418.25390625 c 2
 281.287109375 477.458984375 l 2
 281.287109375 483.615234375 286.2421875 488.572265625 292.3984375 488.572265625 c 2xd8
373.826171875 407.142578125 m 2
 433.03125 407.142578125 l 2
 439.1875 407.142578125 444.142578125 402.1875 444.142578125 396.03125 c 2
 444.142578125 92.541015625 l 2
 444.142578125 86.384765625 439.1875 81.427734375 433.03125 81.427734375 c 2
 373.826171875 81.427734375 l 2
 367.669921875 81.427734375 362.71484375 86.384765625 362.71484375 92.541015625 c 2
 362.71484375 396.03125 l 2xd4
 362.71484375 402.1875 367.669921875 407.142578125 373.826171875 407.142578125 c 2
EndSplineSet
Validated: 524289
EndChar
StartChar: E
Encoding: 69 69 31
Width: 479
VWidth: 0
Flags: W
HStem: 0 81.4277<116.43 442.143> 244.285 81.4297<116.43 442.143> 488.572 81.4277<116.43 442.143>
VStem: 35 81.4297<81.4277 244.285 325.715 488.572>
CounterMasks: 1 e0
LayerCount: 2
Fore
SplineSet
127.541015625 488.572265625 m 2
 121.15234375 488.572265625 116.4296875 493.653320312 116.4296875 499.68359375 c 2
 116.4296875 558.888671875 l 2
 116.4296875 565.044921875 121.384765625 570 127.541015625 570 c 2
 431.03125 570 l 2
 437.1875 570 442.142578125 565.044921875 442.142578125 558.888671875 c 2
 442.142578125 499.68359375 l 2
 442.142578125 493.52734375 437.1875 488.572265625 431.03125 488.572265625 c 2
 127.541015625 488.572265625 l 2
46.111328125 488.572265625 m 2
 105.318359375 488.572265625 l 2
 111.474609375 488.572265625 116.4296875 483.615234375 116.4296875 477.458984375 c 2
 116.4296875 418.25390625 l 2
 116.4296875 418.034179688 116.409179688 417.8203125 116.396484375 417.603515625 c 0
 116.41015625 416.888671875 116.4296875 416.17578125 116.4296875 415.455078125 c 2
 116.4296875 325.71484375 l 1
 431.03125 325.71484375 l 2
 437.1875 325.71484375 442.142578125 320.759765625 442.142578125 314.603515625 c 2
 442.142578125 255.3984375 l 2
 442.142578125 249.2421875 437.1875 244.28515625 431.03125 244.28515625 c 2
 116.4296875 244.28515625 l 1
 116.4296875 81.427734375 l 1
 221.296875 81.427734375 326.1640625 81.427734375 431.03125 81.427734375 c 0
 437.1875 81.427734375 442.142578125 76.47265625 442.142578125 70.31640625 c 2
 442.142578125 11.111328125 l 2
 442.142578125 4.955078125 437.1875 0 431.03125 0 c 2
 46.111328125 0 l 2
 39.955078125 0 35 4.955078125 35 11.111328125 c 0
 35 145.892578125 35 280.673828125 35 415.455078125 c 0
 35 416.17578125 35.01953125 416.888671875 35.033203125 417.603515625 c 0
 35.0205078125 417.8203125 35 418.034179688 35 418.25390625 c 2
 35 477.458984375 l 2
 35 483.615234375 39.955078125 488.572265625 46.111328125 488.572265625 c 2
EndSplineSet
Validated: 524289
EndChar
StartChar: Q
Encoding: 81 81 20
Width: 554
VWidth: 0
Flags: W
HStem: 0 81.4277<118.43 363.98 442.877 525.572> 488.572 81.4277<118.43 362.715>
VStem: 37 81.4297<81.4277 488.572> 362.715 81.4277<81.4277 488.572>
LayerCount: 2
Fore
SplineSet
444.142578125 92.541015625 m 2
 444.142578125 88.8359375 443.46484375 84.9345703125 442.876953125 81.427734375 c 1
 514.4609375 81.427734375 l 2
 520.6171875 81.427734375 525.572265625 76.47265625 525.572265625 70.31640625 c 2
 525.572265625 11.111328125 l 2
 525.572265625 4.955078125 520.6171875 0 514.4609375 0 c 0
 359.010742188 0 203.561523438 0 48.111328125 0 c 0
 41.955078125 0 37 4.955078125 37 11.111328125 c 2
 37 70.31640625 l 2
 37 70.859375 37.052734375 71.390625 37.126953125 71.912109375 c 0
 37.0517578125 73.8515625 37 75.8037109375 37 77.78125 c 2
 37 492.21875 l 2
 37 494.197265625 37.0517578125 496.149414062 37.126953125 498.08984375 c 0
 37.052734375 498.611328125 37 499.140625 37 499.68359375 c 2
 37 558.888671875 l 2
 37 565.044921875 41.955078125 570 48.111328125 570 c 0
 149.275390625 570 250.439453125 570 351.603515625 570 c 0
 357.759765625 570 362.71484375 565.044921875 362.71484375 558.888671875 c 2
 362.71484375 499.68359375 l 2
 362.71484375 493.52734375 357.759765625 488.572265625 351.603515625 488.572265625 c 2
 118.4296875 488.572265625 l 1
 118.4296875 81.427734375 l 1
 363.98046875 81.427734375 l 1
 363.392578125 84.9345703125 362.71484375 88.837890625 362.71484375 92.541015625 c 2
 362.71484375 477.458984375 l 2
 362.71484375 483.615234375 367.669921875 488.572265625 373.826171875 488.572265625 c 2
 433.03125 488.572265625 l 2
 439.1875 488.572265625 444.142578125 483.615234375 444.142578125 477.458984375 c 2
 444.142578125 92.541015625 l 2
EndSplineSet
Validated: 524289
EndChar
StartChar: T
Encoding: 84 84 15
Width: 372
VWidth: 0
Flags: W
HStem: 0 21G<110.461 175.822> 488.572 81.4277<21 102.428 183.857 346.713>
VStem: 102.553 81.1777<0 488.572>
LayerCount: 2
Fore
SplineSet
346.712890625 499.68359375 m 2
 346.712890625 493.053710938 341.475585938 488.572265625 335.6015625 488.572265625 c 2
 183.857421875 488.572265625 l 1
 183.857421875 77.78125 l 2
 183.857421875 75.802734375 183.805664062 73.8486328125 183.73046875 71.908203125 c 0
 183.8046875 71.3876953125 183.857421875 70.8583984375 183.857421875 70.31640625 c 2
 183.857421875 11.111328125 l 2
 183.857421875 4.955078125 178.900390625 0 172.744140625 0 c 2
 113.5390625 0 l 2
 107.3828125 0 102.427734375 4.955078125 102.427734375 11.111328125 c 2
 102.427734375 70.31640625 l 2
 102.427734375 70.859375 102.478515625 71.390625 102.552734375 71.912109375 c 0
 102.477539062 73.8515625 102.427734375 75.8037109375 102.427734375 77.78125 c 2
 102.427734375 488.572265625 l 1
 78.9892578125 488.572265625 55.5498046875 488.572265625 32.111328125 488.572265625 c 0
 25.955078125 488.572265625 21 493.52734375 21 499.68359375 c 2
 21 558.888671875 l 2
 21 565.044921875 25.955078125 570 32.111328125 570 c 0
 133.274414062 570 234.438476562 570 335.6015625 570 c 0
 341.474609375 570 346.712890625 565.515625 346.712890625 558.888671875 c 2
 346.712890625 499.68359375 l 2
EndSplineSet
Validated: 524289
EndChar
StartChar: U
Encoding: 85 85 14
Width: 479
VWidth: 0
Flags: W
HStem: 0 81.4277<115.43 359.715> 550 20G<42.0332 107.396 367.748 433.109>
VStem: 34 81.4297<81.4277 570> 359.715 81.4277<81.4277 570>
LayerCount: 2
Fore
SplineSet
45.111328125 570 m 2
 104.318359375 570 l 2
 110.474609375 570 115.4296875 565.044921875 115.4296875 558.888671875 c 2
 115.4296875 499.68359375 l 2
 115.4296875 499.314453125 115.408203125 498.950195312 115.373046875 498.58984375 c 0
 115.41015625 497.447265625 115.4296875 496.296875 115.4296875 495.138671875 c 0
 115.4296875 360.939453125 115.4296875 226.740234375 115.4296875 92.541015625 c 0
 115.4296875 86.384765625 110.474609375 81.427734375 104.318359375 81.427734375 c 2
 45.111328125 81.427734375 l 2
 38.955078125 81.427734375 34 86.384765625 34 92.541015625 c 0
 34 226.740234375 34 360.939453125 34 495.138671875 c 0
 34 496.296875 34.01953125 497.447265625 34.056640625 498.58984375 c 0
 34.021484375 498.950195312 34 499.314453125 34 499.68359375 c 2
 34 558.888671875 l 2
 34 565.044921875 38.955078125 570 45.111328125 570 c 2
370.826171875 570 m 0
 390.561523438 570 410.295898438 570 430.03125 570 c 0
 436.1875 570 441.142578125 565.044921875 441.142578125 558.888671875 c 2
 441.142578125 499.68359375 l 2
 441.142578125 499.139648438 441.091796875 498.610351562 441.017578125 498.087890625 c 0
 441.092773438 496.1484375 441.142578125 494.196289062 441.142578125 492.21875 c 2
 441.142578125 77.78125 l 2
 441.142578125 75.8037109375 441.092773438 73.8515625 441.017578125 71.912109375 c 0
 441.091796875 71.390625 441.142578125 70.859375 441.142578125 70.31640625 c 2
 441.142578125 11.111328125 l 2
 441.142578125 4.955078125 436.1875 0 430.03125 0 c 2
 126.541015625 0 l 2
 120.384765625 0 115.4296875 4.955078125 115.4296875 11.111328125 c 2
 115.4296875 70.31640625 l 2
 115.4296875 76.47265625 120.384765625 81.427734375 126.541015625 81.427734375 c 0
 204.265625 81.427734375 281.990234375 81.427734375 359.71484375 81.427734375 c 1
 359.71484375 492.21875 l 2
 359.71484375 494.196289062 359.764648438 496.1484375 359.83984375 498.087890625 c 0
 359.765625 498.610351562 359.71484375 499.139648438 359.71484375 499.68359375 c 2
 359.71484375 558.888671875 l 2
 359.71484375 565.044921875 364.669921875 570 370.826171875 570 c 0
EndSplineSet
Validated: 524289
EndChar
StartChar: b
Encoding: 98 98 50
Width: 306
VWidth: 0
Flags: W
HStem: 0 46.5312<83.5312 223.123> 279.184 46.5312<83.5312 223.123> 538.367 20G<41.5908 78.9404>
VStem: 37.0723 46.3867<46.5312 279.184 325.715 558.367> 223.123 46.5312<46.5312 279.184>
LayerCount: 2
Fore
SplineSet
269.654296875 6.349609375 m 2
 269.654296875 2.955078125 267.032226562 0 263.3046875 0 c 2
 43.349609375 0 l 2
 39.83203125 0 37 2.83203125 37 6.349609375 c 2
 37 420.859375 l 2
 37 421.98828125 37.029296875 423.103515625 37.072265625 424.2109375 c 0
 37.029296875 424.509765625 37 424.813476562 37 425.125 c 2
 37 552.017578125 l 2
 37 555.53515625 39.83203125 558.3671875 43.349609375 558.3671875 c 2
 77.181640625 558.3671875 l 2
 80.69921875 558.3671875 83.53125 555.53515625 83.53125 552.017578125 c 2
 83.53125 425.125 l 2
 83.53125 424.817382812 83.5009765625 424.516601562 83.458984375 424.220703125 c 0
 83.501953125 423.110351562 83.53125 421.991210938 83.53125 420.859375 c 2
 83.53125 325.71484375 l 1
 216.7734375 325.71484375 l 2
 220.291015625 325.71484375 223.123046875 322.8828125 223.123046875 319.365234375 c 2
 223.123046875 285.533203125 l 2
 223.123046875 282.015625 220.291015625 279.18359375 216.7734375 279.18359375 c 2
 83.53125 279.18359375 l 1
 83.53125 46.53125 l 1
 223.123046875 46.53125 l 1
 223.123046875 121.965820312 223.123046875 197.399414062 223.123046875 272.833984375 c 0
 223.123046875 276.3515625 225.955078125 279.18359375 229.47265625 279.18359375 c 2
 263.3046875 279.18359375 l 2
 266.822265625 279.18359375 269.654296875 276.3515625 269.654296875 272.833984375 c 2
 269.654296875 6.349609375 l 2
EndSplineSet
Validated: 524289
EndChar
StartChar: d
Encoding: 100 100 48
Width: 304
VWidth: 0
Flags: W
HStem: 0 46.5312<79.5312 219.123> 279.184 46.5312<79.5313 219.123> 538.367 20G<223.714 261.063>
VStem: 33 46.5312<46.5312 279.184> 219.123 46.5312<46.5312 279.184 325.715 558.367>
LayerCount: 2
Fore
SplineSet
265.654296875 6.349609375 m 0
 265.654296875 2.955078125 263.032226562 0 259.3046875 0 c 2
 39.349609375 0 l 2
 35.83203125 0 33 2.83203125 33 6.349609375 c 0
 33 95.177734375 33 184.005859375 33 272.833984375 c 0
 33 276.3515625 35.83203125 279.18359375 39.349609375 279.18359375 c 2
 73.181640625 279.18359375 l 2
 76.69921875 279.18359375 79.53125 276.3515625 79.53125 272.833984375 c 2
 79.53125 46.53125 l 1
 219.123046875 46.53125 l 1
 219.123046875 279.18359375 l 1
 85.880859375 279.18359375 l 2
 82.36328125 279.18359375 79.53125 282.015625 79.53125 285.533203125 c 2
 79.53125 319.365234375 l 2
 79.53125 322.8828125 82.36328125 325.71484375 85.880859375 325.71484375 c 2
 219.123046875 325.71484375 l 1
 219.123046875 401.149414062 219.123046875 476.583007812 219.123046875 552.017578125 c 0
 219.123046875 555.53515625 221.955078125 558.3671875 225.47265625 558.3671875 c 2
 259.3046875 558.3671875 l 2
 262.822265625 558.3671875 265.654296875 555.53515625 265.654296875 552.017578125 c 0
 265.654296875 370.127929688 265.654296875 188.239257812 265.654296875 6.349609375 c 0
EndSplineSet
Validated: 524289
EndChar
StartChar: e
Encoding: 101 101 47
Width: 303
VWidth: 0
Flags: W
HStem: 0 46.5312<82.5312 268.654> 139.592 46.5312<82.5312 222.123> 186.123 93.0605<222.123 268.654> 279.184 46.5312<82.5312 222.123>
VStem: 36 46.5312<46.5312 139.592 186.123 279.184> 222.123 46.5312<186.123 279.184>
LayerCount: 2
Fore
SplineSet
262.3046875 46.53125 m 0xdc
 266.03515625 46.53125 268.654296875 43.5751953125 268.654296875 40.181640625 c 2
 268.654296875 6.349609375 l 2
 268.654296875 2.83203125 265.822265625 0 262.3046875 0 c 0
 188.986328125 0 115.66796875 0 42.349609375 0 c 0
 38.83203125 0 36 2.83203125 36 6.349609375 c 2
 36 40.181640625 l 2
 36 40.4931640625 36.029296875 40.796875 36.072265625 41.095703125 c 0
 36.029296875 42.203125 36 43.318359375 36 44.447265625 c 2
 36 281.267578125 l 2
 36 282.396484375 36.029296875 283.51171875 36.072265625 284.619140625 c 0
 36.029296875 284.91796875 36 285.221679688 36 285.533203125 c 2
 36 319.365234375 l 2
 36 322.8828125 38.83203125 325.71484375 42.349609375 325.71484375 c 2
 215.7734375 325.71484375 l 2
 219.291015625 325.71484375 222.123046875 322.8828125 222.123046875 319.365234375 c 2
 222.123046875 285.533203125 l 2
 222.123046875 282.015625 219.291015625 279.18359375 215.7734375 279.18359375 c 2
 82.53125 279.18359375 l 1
 82.53125 186.123046875 l 1
 215.7734375 186.123046875 l 2
 219.291015625 186.123046875 222.123046875 183.291015625 222.123046875 179.7734375 c 2
 222.123046875 145.94140625 l 2
 222.123046875 142.423828125 219.291015625 139.591796875 215.7734375 139.591796875 c 2
 82.53125 139.591796875 l 1
 82.53125 46.53125 l 1
 142.456054688 46.53125 202.379882812 46.53125 262.3046875 46.53125 c 0xdc
228.47265625 279.18359375 m 2xac
 262.3046875 279.18359375 l 2
 265.822265625 279.18359375 268.654296875 276.3515625 268.654296875 272.833984375 c 0
 268.654296875 248.163085938 268.654296875 223.493164062 268.654296875 198.822265625 c 0
 268.654296875 191.787109375 262.990234375 186.123046875 255.955078125 186.123046875 c 2
 234.822265625 186.123046875 l 2
 227.787109375 186.123046875 222.123046875 191.787109375 222.123046875 198.822265625 c 0
 222.123046875 223.493164062 222.123046875 248.163085938 222.123046875 272.833984375 c 0
 222.123046875 276.3515625 224.955078125 279.18359375 228.47265625 279.18359375 c 2xac
EndSplineSet
Validated: 524289
EndChar
StartChar: f
Encoding: 102 102 46
Width: 285
VWidth: 0
Flags: W
HStem: 0 21G<74.1221 111.472> 279.184 46.5312<23 69.5312 116.062 255.654> 511.836 46.5312<116.062 255.654>
VStem: 69.5312 46.5312<0 279.184 325.715 511.836>
LayerCount: 2
Fore
SplineSet
122.412109375 511.8359375 m 2
 118.760742188 511.8359375 116.0625 514.739257812 116.0625 518.185546875 c 2
 116.0625 552.017578125 l 2
 116.0625 555.53515625 118.89453125 558.3671875 122.412109375 558.3671875 c 2
 249.3046875 558.3671875 l 2
 252.822265625 558.3671875 255.654296875 555.53515625 255.654296875 552.017578125 c 2
 255.654296875 518.185546875 l 2
 255.654296875 514.66796875 252.822265625 511.8359375 249.3046875 511.8359375 c 2
 122.412109375 511.8359375 l 2
75.880859375 511.8359375 m 2
 109.712890625 511.8359375 l 2
 113.23046875 511.8359375 116.0625 509.00390625 116.0625 505.486328125 c 0
 116.0625 445.5625 116.0625 385.638671875 116.0625 325.71484375 c 1
 249.3046875 325.71484375 l 2
 252.822265625 325.71484375 255.654296875 322.8828125 255.654296875 319.365234375 c 2
 255.654296875 285.533203125 l 2
 255.654296875 282.015625 252.822265625 279.18359375 249.3046875 279.18359375 c 2
 116.0625 279.18359375 l 1
 116.0625 188.239257812 116.0625 97.2939453125 116.0625 6.349609375 c 0
 116.0625 2.83203125 113.23046875 0 109.712890625 0 c 2
 75.880859375 0 l 2
 72.36328125 0 69.53125 2.83203125 69.53125 6.349609375 c 2
 69.53125 279.18359375 l 1
 56.1376953125 279.18359375 42.7431640625 279.18359375 29.349609375 279.18359375 c 0
 25.83203125 279.18359375 23 282.015625 23 285.533203125 c 2
 23 319.365234375 l 2
 23 322.8828125 25.83203125 325.71484375 29.349609375 325.71484375 c 0
 42.7431640625 325.71484375 56.1376953125 325.71484375 69.53125 325.71484375 c 1
 69.53125 385.638671875 69.53125 445.5625 69.53125 505.486328125 c 0
 69.53125 509.00390625 72.36328125 511.8359375 75.880859375 511.8359375 c 2
EndSplineSet
Validated: 524289
EndChar
StartChar: g
Encoding: 103 103 45
Width: 305
VWidth: 0
Flags: W
HStem: -139.592 46.5312<34 220.123> 0 46.5312<80.5312 220.123> 279.184 46.5312<80.5313 220.123>
VStem: 34 46.5312<46.5312 279.184> 220.123 46.5312<-93.0605 0 46.5312 279.184>
LayerCount: 2
Fore
SplineSet
86.880859375 279.18359375 m 2
 83.2314453125 279.18359375 80.53125 282.087890625 80.53125 285.533203125 c 2
 80.53125 319.365234375 l 2
 80.53125 322.8828125 83.36328125 325.71484375 86.880859375 325.71484375 c 0
 144.688476562 325.71484375 202.497070312 325.71484375 260.3046875 325.71484375 c 0
 263.822265625 325.71484375 266.654296875 322.8828125 266.654296875 319.365234375 c 2
 266.654296875 -133.2421875 l 2
 266.654296875 -136.63671875 264.032226562 -139.591796875 260.3046875 -139.591796875 c 2
 40.349609375 -139.591796875 l 2
 36.83203125 -139.591796875 34 -136.759765625 34 -133.2421875 c 2
 34 -99.41015625 l 2
 34 -95.892578125 36.83203125 -93.060546875 40.349609375 -93.060546875 c 2
 220.123046875 -93.060546875 l 1
 220.123046875 0 l 1
 40.349609375 0 l 2
 36.83203125 0 34 2.83203125 34 6.349609375 c 2
 34 272.833984375 l 2
 34 276.3515625 36.83203125 279.18359375 40.349609375 279.18359375 c 2
 74.181640625 279.18359375 l 2
 77.69921875 279.18359375 80.53125 276.3515625 80.53125 272.833984375 c 0
 80.53125 197.399414062 80.53125 121.965820312 80.53125 46.53125 c 1
 220.123046875 46.53125 l 1
 220.123046875 279.18359375 l 1
 86.880859375 279.18359375 l 2
EndSplineSet
Validated: 524289
EndChar
StartChar: h
Encoding: 104 104 2
Width: 306
VWidth: 0
Flags: W
HStem: 0 21G<41.5908 78.9404 227.714 265.063> 279.184 46.5312<83.5312 223.123> 538.367 20G<41.5908 78.9404>
VStem: 37 46.5312<0 279.184 325.715 558.367> 223.123 46.5312<0 279.184>
LayerCount: 2
Fore
SplineSet
43.349609375 558.3671875 m 2
 77.181640625 558.3671875 l 2
 80.69921875 558.3671875 83.53125 555.53515625 83.53125 552.017578125 c 0
 83.53125 476.583007812 83.53125 401.149414062 83.53125 325.71484375 c 1
 127.9453125 325.71484375 172.359375 325.71484375 216.7734375 325.71484375 c 0
 220.291015625 325.71484375 223.123046875 322.8828125 223.123046875 319.365234375 c 2
 223.123046875 285.533203125 l 2
 223.123046875 282.015625 220.291015625 279.18359375 216.7734375 279.18359375 c 0
 172.359375 279.18359375 127.9453125 279.18359375 83.53125 279.18359375 c 1
 83.53125 6.349609375 l 2
 83.53125 2.83203125 80.69921875 0 77.181640625 0 c 2
 43.349609375 0 l 2
 39.83203125 0 37 2.83203125 37 6.349609375 c 0
 37 188.239257812 37 370.127929688 37 552.017578125 c 0
 37 555.53515625 39.83203125 558.3671875 43.349609375 558.3671875 c 2
229.47265625 279.18359375 m 2
 263.3046875 279.18359375 l 2
 266.822265625 279.18359375 269.654296875 276.3515625 269.654296875 272.833984375 c 0
 269.654296875 184.005859375 269.654296875 95.177734375 269.654296875 6.349609375 c 0
 269.654296875 2.83203125 266.822265625 0 263.3046875 0 c 2
 229.47265625 0 l 2
 225.955078125 0 223.123046875 2.83203125 223.123046875 6.349609375 c 0
 223.123046875 95.177734375 223.123046875 184.005859375 223.123046875 272.833984375 c 0
 223.123046875 276.3515625 225.955078125 279.18359375 229.47265625 279.18359375 c 2
EndSplineSet
Validated: 524289
EndChar
StartChar: k
Encoding: 107 107 42
Width: 302
VWidth: 0
Flags: W
HStem: 0 93.0605<223.123 269.654> 93.0605 46.5312<176.592 223.123> 139.592 46.5312<130.062 176.592> 186.123 46.5293<83.5333 130.062> 232.652 46.5312<130.062 176.592> 279.184 46.5312<176.592 223.123> 325.715 46.5293<223.123 269.654> 538.367 20G<41.5908 78.9404>
VStem: 37 46.5312<0 192.473 226.303 558.367> 130.062 46.5293<139.592 186.123 232.652 279.184> 176.592 46.5312<93.0605 139.592 279.184 325.715> 223.123 46.5312<0 93.0605 325.715 372.244>
LayerCount: 2
Fore
SplineSet
43.349609375 558.3671875 m 2x91c0
 77.181640625 558.3671875 l 2
 80.69921875 558.3671875 83.53125 555.53515625 83.53125 552.017578125 c 2
 83.53125 226.302734375 l 2
 83.53125 229.8203125 86.36328125 232.65234375 89.880859375 232.65234375 c 2
 123.712890625 232.65234375 l 2
 127.23046875 232.65234375 130.0625 229.8203125 130.0625 226.302734375 c 2
 130.0625 192.47265625 l 2
 130.0625 188.955078125 127.23046875 186.123046875 123.712890625 186.123046875 c 2
 89.880859375 186.123046875 l 2
 86.36328125 186.123046875 83.53125 188.955078125 83.53125 192.47265625 c 1
 83.53125 130.431640625 83.53125 68.390625 83.53125 6.349609375 c 0
 83.53125 2.83203125 80.69921875 0 77.181640625 0 c 2
 43.349609375 0 l 2
 39.83203125 0 37 2.83203125 37 6.349609375 c 0
 37 188.239257812 37 370.127929688 37 552.017578125 c 0
 37 555.53515625 39.83203125 558.3671875 43.349609375 558.3671875 c 2x91c0
229.47265625 372.244140625 m 2x0390
 263.3046875 372.244140625 l 2
 266.822265625 372.244140625 269.654296875 369.412109375 269.654296875 365.89453125 c 2
 269.654296875 332.064453125 l 2
 269.654296875 328.546875 266.822265625 325.71484375 263.3046875 325.71484375 c 2
 229.47265625 325.71484375 l 2
 225.955078125 325.71484375 223.123046875 328.546875 223.123046875 332.064453125 c 2
 223.123046875 365.89453125 l 2
 223.123046875 369.412109375 225.955078125 372.244140625 229.47265625 372.244140625 c 2x0390
182.94140625 325.71484375 m 2x05a0
 216.7734375 325.71484375 l 2
 220.291015625 325.71484375 223.123046875 322.8828125 223.123046875 319.365234375 c 2
 223.123046875 285.533203125 l 2
 223.123046875 282.015625 220.291015625 279.18359375 216.7734375 279.18359375 c 2
 182.94140625 279.18359375 l 2
 179.423828125 279.18359375 176.591796875 282.015625 176.591796875 285.533203125 c 2
 176.591796875 319.365234375 l 2
 176.591796875 322.8828125 179.423828125 325.71484375 182.94140625 325.71484375 c 2x05a0
136.412109375 279.18359375 m 2x09c0
 170.2421875 279.18359375 l 2
 173.759765625 279.18359375 176.591796875 276.3515625 176.591796875 272.833984375 c 2
 176.591796875 239.001953125 l 2
 176.591796875 235.484375 173.759765625 232.65234375 170.2421875 232.65234375 c 2
 136.412109375 232.65234375 l 2
 132.89453125 232.65234375 130.0625 235.484375 130.0625 239.001953125 c 2
 130.0625 272.833984375 l 2
 130.0625 276.3515625 132.89453125 279.18359375 136.412109375 279.18359375 c 2x09c0
136.412109375 186.123046875 m 2x21c0
 170.2421875 186.123046875 l 2
 173.759765625 186.123046875 176.591796875 183.291015625 176.591796875 179.7734375 c 2
 176.591796875 145.94140625 l 2
 176.591796875 142.423828125 173.759765625 139.591796875 170.2421875 139.591796875 c 2
 136.412109375 139.591796875 l 2
 132.89453125 139.591796875 130.0625 142.423828125 130.0625 145.94140625 c 2
 130.0625 179.7734375 l 2
 130.0625 183.291015625 132.89453125 186.123046875 136.412109375 186.123046875 c 2x21c0
182.94140625 139.591796875 m 2x41a0
 216.7734375 139.591796875 l 2
 220.291015625 139.591796875 223.123046875 136.759765625 223.123046875 133.2421875 c 2
 223.123046875 99.41015625 l 2
 223.123046875 95.892578125 220.291015625 93.060546875 216.7734375 93.060546875 c 2
 182.94140625 93.060546875 l 2
 179.423828125 93.060546875 176.591796875 95.892578125 176.591796875 99.41015625 c 2
 176.591796875 133.2421875 l 2
 176.591796875 136.759765625 179.423828125 139.591796875 182.94140625 139.591796875 c 2x41a0
229.47265625 93.060546875 m 2x8190
 263.3046875 93.060546875 l 2
 266.822265625 93.060546875 269.654296875 90.228515625 269.654296875 86.7109375 c 2
 269.654296875 6.349609375 l 2
 269.654296875 2.83203125 266.822265625 0 263.3046875 0 c 2
 229.47265625 0 l 2
 225.955078125 0 223.123046875 2.83203125 223.123046875 6.349609375 c 2
 223.123046875 86.7109375 l 2
 223.123046875 90.228515625 225.955078125 93.060546875 229.47265625 93.060546875 c 2x8190
EndSplineSet
Validated: 524289
EndChar
StartChar: m
Encoding: 109 109 40
Width: 306
VWidth: 0
Flags: W
HStem: 0 21G<40.5908 77.9404 133.653 171.001 226.714 264.063> 279.184 46.5312<82.5312 129.062 175.592 222.123>
VStem: 36 46.5312<0 279.184> 129.062 46.5293<0 279.184> 175.592 46.5312<279.184 325.715> 222.123 46.5312<0 279.184>
LayerCount: 2
Fore
SplineSet
42.349609375 325.71484375 m 0xf0
 69.1376953125 325.71484375 95.9248046875 325.71484375 122.712890625 325.71484375 c 0
 126.23046875 325.71484375 129.0625 322.8828125 129.0625 319.365234375 c 2
 129.0625 285.533203125 l 2
 129.0625 282.015625 126.23046875 279.18359375 122.712890625 279.18359375 c 0
 109.319335938 279.18359375 95.9248046875 279.18359375 82.53125 279.18359375 c 1
 82.53125 188.239257812 82.53125 97.2939453125 82.53125 6.349609375 c 0
 82.53125 2.83203125 79.69921875 0 76.181640625 0 c 2
 42.349609375 0 l 2
 38.83203125 0 36 2.83203125 36 6.349609375 c 2
 36 319.365234375 l 2
 36 322.8828125 38.83203125 325.71484375 42.349609375 325.71484375 c 0xf0
181.94140625 325.71484375 m 2
 215.7734375 325.71484375 l 2
 219.291015625 325.71484375 222.123046875 322.8828125 222.123046875 319.365234375 c 2
 222.123046875 285.533203125 l 2
 222.123046875 282.015625 219.291015625 279.18359375 215.7734375 279.18359375 c 2
 181.94140625 279.18359375 l 2
 178.423828125 279.18359375 175.591796875 282.015625 175.591796875 285.533203125 c 2
 175.591796875 319.365234375 l 2xe8
 175.591796875 322.8828125 178.423828125 325.71484375 181.94140625 325.71484375 c 2
135.412109375 279.18359375 m 2
 169.2421875 279.18359375 l 2
 172.759765625 279.18359375 175.591796875 276.3515625 175.591796875 272.833984375 c 2
 175.591796875 6.349609375 l 2
 175.591796875 2.83203125 172.759765625 0 169.2421875 0 c 2
 135.412109375 0 l 2
 131.89453125 0 129.0625 2.83203125 129.0625 6.349609375 c 2
 129.0625 272.833984375 l 2xf0
 129.0625 276.3515625 131.89453125 279.18359375 135.412109375 279.18359375 c 2
228.47265625 279.18359375 m 2
 262.3046875 279.18359375 l 2
 265.822265625 279.18359375 268.654296875 276.3515625 268.654296875 272.833984375 c 2
 268.654296875 6.349609375 l 2
 268.654296875 2.83203125 265.822265625 0 262.3046875 0 c 2
 228.47265625 0 l 2
 224.955078125 0 222.123046875 2.83203125 222.123046875 6.349609375 c 2
 222.123046875 272.833984375 l 2xe4
 222.123046875 276.3515625 224.955078125 279.18359375 228.47265625 279.18359375 c 2
EndSplineSet
Validated: 524289
EndChar
StartChar: r
Encoding: 114 114 35
Width: 297
VWidth: 0
Flags: W
HStem: 0 21G<38.5908 75.9404> 279.184 46.5312<80.5312 266.654>
VStem: 34 46.5312<0 279.184>
LayerCount: 2
Fore
SplineSet
86.880859375 279.18359375 m 2
 83.2314453125 279.18359375 80.53125 282.087890625 80.53125 285.533203125 c 2
 80.53125 319.365234375 l 2
 80.53125 322.8828125 83.36328125 325.71484375 86.880859375 325.71484375 c 2
 260.3046875 325.71484375 l 2
 263.822265625 325.71484375 266.654296875 322.8828125 266.654296875 319.365234375 c 2
 266.654296875 285.533203125 l 2
 266.654296875 282.015625 263.822265625 279.18359375 260.3046875 279.18359375 c 2
 86.880859375 279.18359375 l 2
40.349609375 279.18359375 m 2
 74.181640625 279.18359375 l 2
 77.69921875 279.18359375 80.53125 276.3515625 80.53125 272.833984375 c 0
 80.53125 184.005859375 80.53125 95.177734375 80.53125 6.349609375 c 0
 80.53125 2.83203125 77.69921875 0 74.181640625 0 c 2
 40.349609375 0 l 2
 36.83203125 0 34 2.83203125 34 6.349609375 c 0
 34 95.177734375 34 184.005859375 34 272.833984375 c 0
 34 276.3515625 36.83203125 279.18359375 40.349609375 279.18359375 c 2
EndSplineSet
Validated: 524289
EndChar
StartChar: t
Encoding: 116 116 33
Width: 234
VWidth: 0
Flags: W
HStem: 0 46.5312<116.062 162.592> 279.184 46.5312<23 69.5312 116.062 209.123> 538.367 20G<74.1221 111.472>
VStem: 69.5312 46.5312<46.5312 279.184 325.715 558.367> 116.062 46.5293<0 46.5312>
LayerCount: 2
Fore
SplineSet
23 319.365234375 m 2xf0
 23 322.72265625 25.5849609375 325.71484375 29.349609375 325.71484375 c 0
 42.7431640625 325.71484375 56.1376953125 325.71484375 69.53125 325.71484375 c 1
 69.53125 401.149414062 69.53125 476.583007812 69.53125 552.017578125 c 0
 69.53125 555.53515625 72.36328125 558.3671875 75.880859375 558.3671875 c 2
 109.712890625 558.3671875 l 2
 113.23046875 558.3671875 116.0625 555.53515625 116.0625 552.017578125 c 0
 116.0625 476.583007812 116.0625 401.149414062 116.0625 325.71484375 c 1
 144.965820312 325.71484375 173.870117188 325.71484375 202.7734375 325.71484375 c 0
 206.291015625 325.71484375 209.123046875 322.8828125 209.123046875 319.365234375 c 2
 209.123046875 285.533203125 l 2
 209.123046875 282.015625 206.291015625 279.18359375 202.7734375 279.18359375 c 0
 173.870117188 279.18359375 144.965820312 279.18359375 116.0625 279.18359375 c 1
 116.0625 52.880859375 l 2
 116.0625 49.36328125 113.23046875 46.53125 109.712890625 46.53125 c 2
 75.880859375 46.53125 l 2
 72.36328125 46.53125 69.53125 49.36328125 69.53125 52.880859375 c 0
 69.53125 128.315429688 69.53125 203.749023438 69.53125 279.18359375 c 1
 56.1376953125 279.18359375 42.7431640625 279.18359375 29.349609375 279.18359375 c 0
 25.5849609375 279.18359375 23 282.176757812 23 285.533203125 c 2
 23 319.365234375 l 2xf0
122.412109375 46.53125 m 2
 156.2421875 46.53125 l 2
 159.759765625 46.53125 162.591796875 43.69921875 162.591796875 40.181640625 c 2
 162.591796875 6.349609375 l 2
 162.591796875 2.83203125 159.759765625 0 156.2421875 0 c 2
 122.412109375 0 l 2
 118.89453125 0 116.0625 2.83203125 116.0625 6.349609375 c 2
 116.0625 40.181640625 l 2xe8
 116.0625 43.69921875 118.89453125 46.53125 122.412109375 46.53125 c 2
EndSplineSet
Validated: 524289
EndChar
StartChar: u
Encoding: 117 117 32
Width: 305
VWidth: 0
Flags: W
HStem: 0 46.5312<80.5312 220.123> 305.715 20G<38.5908 75.9404 224.714 262.063>
VStem: 34 46.5312<46.5312 325.715> 220.123 46.5312<46.5312 325.715>
LayerCount: 2
Fore
SplineSet
40.349609375 325.71484375 m 2
 74.181640625 325.71484375 l 2
 77.69921875 325.71484375 80.53125 322.8828125 80.53125 319.365234375 c 2
 80.53125 52.880859375 l 2
 80.53125 49.36328125 77.69921875 46.53125 74.181640625 46.53125 c 2
 40.349609375 46.53125 l 2
 36.83203125 46.53125 34 49.36328125 34 52.880859375 c 2
 34 319.365234375 l 2
 34 322.8828125 36.83203125 325.71484375 40.349609375 325.71484375 c 2
226.47265625 325.71484375 m 0
 237.75 325.71484375 249.02734375 325.71484375 260.3046875 325.71484375 c 0
 263.822265625 325.71484375 266.654296875 322.8828125 266.654296875 319.365234375 c 2
 266.654296875 285.533203125 l 2
 266.654296875 285.221679688 266.625 284.91796875 266.58203125 284.619140625 c 0
 266.625 283.51171875 266.654296875 282.396484375 266.654296875 281.267578125 c 2
 266.654296875 44.447265625 l 2
 266.654296875 43.318359375 266.625 42.203125 266.58203125 41.095703125 c 0
 266.625 40.7958984375 266.654296875 40.4931640625 266.654296875 40.181640625 c 2
 266.654296875 6.349609375 l 2
 266.654296875 2.83203125 263.822265625 0 260.3046875 0 c 2
 86.880859375 0 l 2
 83.36328125 0 80.53125 2.83203125 80.53125 6.349609375 c 2
 80.53125 40.181640625 l 2
 80.53125 43.69921875 83.36328125 46.53125 86.880859375 46.53125 c 2
 220.123046875 46.53125 l 1
 220.123046875 281.267578125 l 2
 220.123046875 282.399414062 220.15234375 283.518554688 220.1953125 284.62890625 c 0
 220.153320312 284.924804688 220.123046875 285.225585938 220.123046875 285.533203125 c 2
 220.123046875 319.365234375 l 2
 220.123046875 322.8828125 222.955078125 325.71484375 226.47265625 325.71484375 c 0
EndSplineSet
Validated: 524289
EndChar
StartChar: v
Encoding: 118 118 19
Width: 299
VWidth: 0
Flags: W
HStem: 0 46.5312<125.062 171.592> 46.5312 93.0605<78.5312 125.062 171.592 218.123> 305.715 20G<36.5908 73.9404>
VStem: 32 46.5312<139.592 325.715> 78.5312 46.5312<46.5312 139.592> 125.062 46.5293<0 46.5312> 171.592 46.5312<46.5312 139.592> 218.123 46.5312<139.592 279.184>
LayerCount: 2
Fore
SplineSet
38.349609375 325.71484375 m 2x70
 72.181640625 325.71484375 l 2
 75.69921875 325.71484375 78.53125 322.8828125 78.53125 319.365234375 c 0
 78.53125 261.557617188 78.53125 203.749023438 78.53125 145.94140625 c 0
 78.53125 142.423828125 75.69921875 139.591796875 72.181640625 139.591796875 c 2
 38.349609375 139.591796875 l 2
 34.83203125 139.591796875 32 142.423828125 32 145.94140625 c 0
 32 203.749023438 32 261.557617188 32 319.365234375 c 0
 32 322.8828125 34.83203125 325.71484375 38.349609375 325.71484375 c 2x70
224.47265625 279.18359375 m 2
 258.3046875 279.18359375 l 2
 261.822265625 279.18359375 264.654296875 276.3515625 264.654296875 272.833984375 c 2
 264.654296875 145.94140625 l 2
 264.654296875 142.423828125 261.822265625 139.591796875 258.3046875 139.591796875 c 2
 224.47265625 139.591796875 l 2
 220.955078125 139.591796875 218.123046875 142.423828125 218.123046875 145.94140625 c 2
 218.123046875 272.833984375 l 2x61
 218.123046875 276.3515625 220.955078125 279.18359375 224.47265625 279.18359375 c 2
84.880859375 139.591796875 m 2
 118.712890625 139.591796875 l 2
 122.23046875 139.591796875 125.0625 136.759765625 125.0625 133.2421875 c 2
 125.0625 52.880859375 l 2
 125.0625 49.36328125 122.23046875 46.53125 118.712890625 46.53125 c 2
 84.880859375 46.53125 l 2
 81.36328125 46.53125 78.53125 49.36328125 78.53125 52.880859375 c 2
 78.53125 133.2421875 l 2x68
 78.53125 136.759765625 81.36328125 139.591796875 84.880859375 139.591796875 c 2
177.94140625 139.591796875 m 2
 211.7734375 139.591796875 l 2
 215.291015625 139.591796875 218.123046875 136.759765625 218.123046875 133.2421875 c 2
 218.123046875 52.880859375 l 2
 218.123046875 49.36328125 215.291015625 46.53125 211.7734375 46.53125 c 2
 177.94140625 46.53125 l 2
 174.423828125 46.53125 171.591796875 49.36328125 171.591796875 52.880859375 c 2
 171.591796875 133.2421875 l 2x62
 171.591796875 136.759765625 174.423828125 139.591796875 177.94140625 139.591796875 c 2
131.412109375 46.53125 m 2xa4
 165.2421875 46.53125 l 2
 168.759765625 46.53125 171.591796875 43.69921875 171.591796875 40.181640625 c 2
 171.591796875 6.349609375 l 2
 171.591796875 2.83203125 168.759765625 0 165.2421875 0 c 2
 131.412109375 0 l 2
 127.89453125 0 125.0625 2.83203125 125.0625 6.349609375 c 2
 125.0625 40.181640625 l 2
 125.0625 43.69921875 127.89453125 46.53125 131.412109375 46.53125 c 2xa4
EndSplineSet
Validated: 524289
EndChar
StartChar: w
Encoding: 119 119 18
Width: 306
VWidth: 0
Flags: W
HStem: 0 46.5312<82.5312 129.062 175.592 222.123> 46.5312 46.5293<129.062 175.592> 305.715 20G<40.5908 77.9404 226.714 264.063>
VStem: 36 46.5312<46.5312 325.715> 36.0723 92.9902<0 46.5312> 129.062 46.5293<46.5313 93.0605> 175.592 46.5312<0 46.5312> 222.123 46.5312<46.5313 325.715>
LayerCount: 2
Fore
SplineSet
42.349609375 325.71484375 m 2xb0
 76.181640625 325.71484375 l 2
 79.69921875 325.71484375 82.53125 322.8828125 82.53125 319.365234375 c 2
 82.53125 285.533203125 l 2
 82.53125 285.225585938 82.5009765625 284.924804688 82.458984375 284.62890625 c 0
 82.501953125 283.518554688 82.53125 282.399414062 82.53125 281.267578125 c 2
 82.53125 46.53125 l 1xb0
 95.9248046875 46.53125 109.319335938 46.53125 122.712890625 46.53125 c 0
 126.23046875 46.53125 129.0625 43.69921875 129.0625 40.181640625 c 2
 129.0625 6.349609375 l 2xa8
 129.0625 2.83203125 126.23046875 0 122.712890625 0 c 0
 95.9248046875 0 69.1376953125 0 42.349609375 0 c 0
 38.83203125 0 36 2.83203125 36 6.349609375 c 2
 36 40.181640625 l 2xb0
 36 40.4931640625 36.029296875 40.7958984375 36.072265625 41.095703125 c 0xa8
 36.029296875 42.203125 36 43.318359375 36 44.447265625 c 2
 36 281.267578125 l 2xb0
 36 282.396484375 36.029296875 283.51171875 36.072265625 284.619140625 c 0xa8
 36.029296875 284.91796875 36 285.221679688 36 285.533203125 c 2
 36 319.365234375 l 2
 36 322.8828125 38.83203125 325.71484375 42.349609375 325.71484375 c 2xb0
228.47265625 325.71484375 m 2
 262.3046875 325.71484375 l 2
 265.822265625 325.71484375 268.654296875 322.8828125 268.654296875 319.365234375 c 0
 268.654296875 230.537109375 268.654296875 141.708984375 268.654296875 52.880859375 c 0
 268.654296875 49.36328125 265.822265625 46.53125 262.3046875 46.53125 c 2
 228.47265625 46.53125 l 2
 224.955078125 46.53125 222.123046875 49.36328125 222.123046875 52.880859375 c 0
 222.123046875 141.708984375 222.123046875 230.537109375 222.123046875 319.365234375 c 0x61
 222.123046875 322.8828125 224.955078125 325.71484375 228.47265625 325.71484375 c 2
135.412109375 93.060546875 m 2
 169.2421875 93.060546875 l 2
 172.759765625 93.060546875 175.591796875 90.228515625 175.591796875 86.7109375 c 2
 175.591796875 52.880859375 l 2
 175.591796875 49.36328125 172.759765625 46.53125 169.2421875 46.53125 c 2
 135.412109375 46.53125 l 2
 131.89453125 46.53125 129.0625 49.36328125 129.0625 52.880859375 c 2
 129.0625 86.7109375 l 2x64
 129.0625 90.228515625 131.89453125 93.060546875 135.412109375 93.060546875 c 2
181.94140625 46.53125 m 2xa2
 215.7734375 46.53125 l 2
 219.291015625 46.53125 222.123046875 43.69921875 222.123046875 40.181640625 c 2
 222.123046875 6.349609375 l 2
 222.123046875 2.83203125 219.291015625 0 215.7734375 0 c 2
 181.94140625 0 l 2
 178.423828125 0 175.591796875 2.83203125 175.591796875 6.349609375 c 2
 175.591796875 40.181640625 l 2
 175.591796875 43.69921875 178.423828125 46.53125 181.94140625 46.53125 c 2xa2
EndSplineSet
Validated: 524289
EndChar
StartChar: x
Encoding: 120 120 8
Width: 306
VWidth: 0
Flags: W
HStem: 0 139.592<36 82.5312 222.123 268.654> 93.0605 46.5312<82.5312 129.062 175.592 222.123> 139.592 46.5312<129.062 175.592> 186.123 46.5293<82.5312 129.062 175.592 222.123> 232.652 93.0625<222.123 268.654>
VStem: 36 93.0625<93.0605 139.592 186.123 232.652> 36 46.5312<0 93.0605 232.652 325.715> 129.062 46.5293<139.592 186.123> 175.592 46.5312<186.123 232.652> 222.123 46.5312<0 93.0605 232.652 325.715>
LayerCount: 2
Fore
SplineSet
42.349609375 325.71484375 m 2x0a
 76.181640625 325.71484375 l 2x0a
 79.69921875 325.71484375 82.53125 322.8828125 82.53125 319.365234375 c 0
 82.53125 290.4609375 82.53125 261.556640625 82.53125 232.65234375 c 1x12
 122.712890625 232.65234375 l 2
 126.23046875 232.65234375 129.0625 229.8203125 129.0625 226.302734375 c 2
 129.0625 192.47265625 l 2
 129.0625 188.955078125 126.23046875 186.123046875 122.712890625 186.123046875 c 2
 42.349609375 186.123046875 l 2
 38.83203125 186.123046875 36 188.955078125 36 192.47265625 c 2x14
 36 319.365234375 l 2
 36 322.8828125 38.83203125 325.71484375 42.349609375 325.71484375 c 2x0a
228.47265625 325.71484375 m 2
 262.3046875 325.71484375 l 2
 265.822265625 325.71484375 268.654296875 322.8828125 268.654296875 319.365234375 c 2
 268.654296875 239.001953125 l 2
 268.654296875 235.484375 265.822265625 232.65234375 262.3046875 232.65234375 c 2
 228.47265625 232.65234375 l 2
 224.955078125 232.65234375 222.123046875 235.484375 222.123046875 239.001953125 c 2
 222.123046875 319.365234375 l 2x0840
 222.123046875 322.8828125 224.955078125 325.71484375 228.47265625 325.71484375 c 2
181.94140625 232.65234375 m 2x1080
 215.7734375 232.65234375 l 2
 219.291015625 232.65234375 222.123046875 229.8203125 222.123046875 226.302734375 c 2
 222.123046875 192.47265625 l 2
 222.123046875 188.955078125 219.291015625 186.123046875 215.7734375 186.123046875 c 2
 181.94140625 186.123046875 l 2
 178.423828125 186.123046875 175.591796875 188.955078125 175.591796875 192.47265625 c 2
 175.591796875 226.302734375 l 2
 175.591796875 229.8203125 178.423828125 232.65234375 181.94140625 232.65234375 c 2x1080
135.412109375 186.123046875 m 2x21
 169.2421875 186.123046875 l 2
 172.759765625 186.123046875 175.591796875 183.291015625 175.591796875 179.7734375 c 2
 175.591796875 145.94140625 l 2
 175.591796875 142.423828125 172.759765625 139.591796875 169.2421875 139.591796875 c 2
 135.412109375 139.591796875 l 2
 131.89453125 139.591796875 129.0625 142.423828125 129.0625 145.94140625 c 2
 129.0625 179.7734375 l 2
 129.0625 183.291015625 131.89453125 186.123046875 135.412109375 186.123046875 c 2x21
42.349609375 139.591796875 m 2x84
 122.712890625 139.591796875 l 2
 126.23046875 139.591796875 129.0625 136.759765625 129.0625 133.2421875 c 2
 129.0625 99.41015625 l 2x44
 129.0625 95.892578125 126.23046875 93.060546875 122.712890625 93.060546875 c 2
 82.53125 93.060546875 l 1x42
 82.53125 64.1572265625 82.53125 35.2529296875 82.53125 6.349609375 c 0
 82.53125 2.83203125 79.69921875 0 76.181640625 0 c 2
 42.349609375 0 l 2
 38.83203125 0 36 2.83203125 36 6.349609375 c 2x82
 36 133.2421875 l 2
 36 136.759765625 38.83203125 139.591796875 42.349609375 139.591796875 c 2x84
181.94140625 139.591796875 m 0
 208.729492188 139.591796875 235.516601562 139.591796875 262.3046875 139.591796875 c 0
 265.822265625 139.591796875 268.654296875 136.759765625 268.654296875 133.2421875 c 2
 268.654296875 6.349609375 l 2
 268.654296875 2.83203125 265.822265625 0 262.3046875 0 c 2
 228.47265625 0 l 2x8040
 224.955078125 0 222.123046875 2.83203125 222.123046875 6.349609375 c 0
 222.123046875 35.2529296875 222.123046875 64.1572265625 222.123046875 93.060546875 c 1x4040
 208.729492188 93.060546875 195.334960938 93.060546875 181.94140625 93.060546875 c 0
 178.423828125 93.060546875 175.591796875 95.892578125 175.591796875 99.41015625 c 2
 175.591796875 133.2421875 l 2x4080
 175.591796875 136.759765625 178.423828125 139.591796875 181.94140625 139.591796875 c 0
EndSplineSet
Validated: 524289
EndChar
StartChar: z
Encoding: 122 122 6
Width: 304
VWidth: 0
Flags: W
HStem: 0 46.5312<82.041 267.652> 139.592 46.5312<82.041 221.633> 279.184 46.5312<35.5098 221.633>
VStem: 35.5098 46.5312<46.5312 139.592> 221.633 46.5312<186.123 279.184>
CounterMasks: 1 e0
LayerCount: 2
Fore
SplineSet
35.509765625 319.365234375 m 2
 35.509765625 322.720703125 38.0791015625 325.71484375 41.859375 325.71484375 c 0
 99.6669921875 325.71484375 157.475585938 325.71484375 215.283203125 325.71484375 c 0
 219.013671875 325.71484375 221.6328125 322.7578125 221.6328125 319.365234375 c 2
 221.6328125 285.533203125 l 2
 221.6328125 282.015625 218.80078125 279.18359375 215.283203125 279.18359375 c 0
 157.475585938 279.18359375 99.6669921875 279.18359375 41.859375 279.18359375 c 0
 38.10546875 279.18359375 35.509765625 282.16796875 35.509765625 285.533203125 c 2
 35.509765625 319.365234375 l 2
35.509765625 179.7734375 m 2
 35.509765625 183.12890625 38.0703125 186.123046875 41.859375 186.123046875 c 0
 101.784179688 186.123046875 161.708007812 186.123046875 221.6328125 186.123046875 c 1
 221.6328125 215.026367188 221.6328125 243.930664062 221.6328125 272.833984375 c 0
 221.6328125 276.3515625 224.46484375 279.18359375 227.982421875 279.18359375 c 2
 261.814453125 279.18359375 l 2
 265.33203125 279.18359375 268.1640625 276.3515625 268.1640625 272.833984375 c 2
 268.1640625 145.94140625 l 2
 268.1640625 142.546875 265.541992188 139.591796875 261.814453125 139.591796875 c 0
 201.889648438 139.591796875 141.965820312 139.591796875 82.041015625 139.591796875 c 1
 82.041015625 108.571289062 82.041015625 77.5517578125 82.041015625 46.53125 c 1
 141.795898438 46.53125 201.549804688 46.53125 261.3046875 46.53125 c 0
 264.822265625 46.53125 267.65234375 43.69921875 267.65234375 40.181640625 c 2
 267.65234375 6.349609375 l 2
 267.65234375 2.83203125 264.822265625 0 261.3046875 0 c 0
 187.986328125 0 114.66796875 0 41.349609375 0 c 0
 37.83203125 0 35 2.83203125 35 6.349609375 c 2
 35 40.181640625 l 2
 35 41.0712890625 35.1826171875 41.9150390625 35.509765625 42.681640625 c 2
 35.509765625 179.7734375 l 2
EndSplineSet
Validated: 524289
EndChar
